<?xml version="1.0" encoding="UTF-8" standalone="no"?>
<svg
   xmlns:dc="http://purl.org/dc/elements/1.1/"
   xmlns:cc="http://creativecommons.org/ns#"
   xmlns:rdf="http://www.w3.org/1999/02/22-rdf-syntax-ns#"
   xmlns:svg="http://www.w3.org/2000/svg"
   xmlns="http://www.w3.org/2000/svg"
   xmlns:sodipodi="http://sodipodi.sourceforge.net/DTD/sodipodi-0.dtd"
   xmlns:inkscape="http://www.inkscape.org/namespaces/inkscape"
   width="100%"
   height="100%"
   viewBox="0 0 2340 204"
   version="1.1"
   xml:space="preserve"
   style="fill-rule:evenodd;clip-rule:evenodd;stroke-linejoin:round;stroke-miterlimit:1.41421;"
   id="svg52"
   sodipodi:docname="bpmn.ai-logo.svg"
   inkscape:version="0.92.2 (5c3e80d, 2017-08-06)"><metadata
     id="metadata58"><rdf:RDF><cc:Work
         rdf:about=""><dc:format>image/svg+xml</dc:format><dc:type
           rdf:resource="http://purl.org/dc/dcmitype/StillImage" /><dc:title /></cc:Work></rdf:RDF></metadata><defs
     id="defs56" /><sodipodi:namedview
     pagecolor="#ffffff"
     bordercolor="#666666"
     borderopacity="1"
     objecttolerance="10"
     gridtolerance="10"
     guidetolerance="10"
     inkscape:pageopacity="0"
     inkscape:pageshadow="2"
     inkscape:window-width="1837"
     inkscape:window-height="1046"
     id="namedview54"
     showgrid="false"
     inkscape:zoom="0.2991453"
     inkscape:cx="706.11669"
     inkscape:cy="-458.9086"
     inkscape:window-x="1958"
     inkscape:window-y="43"
     inkscape:window-maximized="0"
     inkscape:current-layer="svg52" /><path
     d="M838.857,66.125l15.15,0l-39.392,136.358l-15.151,0l39.393,-136.358Z"
     style="fill:#dfa93f;fill-rule:nonzero;"
     id="path34" /><path
     d="M872.02,66.125l15.151,0l-39.392,136.358l-15.151,0l39.392,-136.358Z"
     style="fill:#dfa93f;fill-rule:nonzero;"
     id="path36" /><g
     id="g50"><path
       d="M714.111,118.034c-0.158,-7.514 -1.798,-13.646 -4.915,-18.403c-3.117,-4.754 -8.191,-7.131 -15.224,-7.131c-6.314,0 -11.267,2.636 -14.863,7.912c-3.598,5.274 -5.595,11.386 -5.993,18.339c13.505,0 27.169,-0.238 40.995,-0.717Zm39.439,23.854l-1.44,1.676c-13.186,0.16 -27.47,0.38 -42.854,0.662c-15.383,0.279 -27.511,0.538 -36.38,0.778c3.197,19.02 15.142,28.528 35.839,28.528c6.873,0 13.349,-0.859 19.42,-2.576c6.073,-1.718 12.428,-4.374 19.06,-7.972l1.798,0.719c-0.481,4.715 -0.859,9.73 -1.138,15.043c-0.282,5.316 -0.499,9.532 -0.66,12.649l-1.438,2.035c-5.194,2.16 -9.968,3.877 -14.326,5.155c-4.354,1.278 -8.909,2.219 -13.663,2.817c-4.757,0.6 -9.65,0.9 -14.684,0.9c-14.547,0 -27.172,-2.597 -37.88,-7.791c-10.709,-5.196 -18.9,-12.907 -24.575,-23.136c-5.673,-10.228 -8.51,-22.535 -8.51,-36.921c0,-13.264 2.496,-25.072 7.493,-35.421c4.993,-10.348 12.364,-18.4 22.115,-24.153c9.749,-5.755 21.378,-8.631 34.883,-8.631c13.585,0 24.653,3.096 33.204,9.288c8.551,6.195 14.645,14.666 18.281,25.416c3.637,10.747 5.455,22.994 5.455,36.739l0,4.196Z"
       style="fill:#2fbba5;fill-rule:nonzero;"
       id="path38" /><path
       d="M576.019,118.034c-0.16,-7.514 -1.798,-13.646 -4.914,-18.403c-3.117,-4.754 -8.192,-7.131 -15.225,-7.131c-6.314,0 -11.267,2.636 -14.862,7.912c-3.596,5.274 -5.595,11.386 -5.994,18.339c13.505,0 27.17,-0.238 40.995,-0.717Zm39.437,23.854l-1.438,1.676c-13.186,0.16 -27.469,0.38 -42.854,0.662c-15.385,0.279 -27.511,0.538 -36.38,0.778c3.197,19.02 15.144,28.528 35.842,28.528c6.872,0 13.344,-0.859 19.417,-2.576c6.076,-1.718 12.429,-4.374 19.061,-7.972l1.8,0.719c-0.481,4.715 -0.861,9.73 -1.141,15.043c-0.281,5.316 -0.499,9.532 -0.659,12.649l-1.438,2.035c-5.194,2.16 -9.969,3.877 -14.325,5.155c-4.356,1.278 -8.91,2.219 -13.665,2.817c-4.754,0.6 -9.65,0.9 -14.684,0.9c-14.546,0 -27.174,-2.597 -37.88,-7.791c-10.708,-5.196 -18.9,-12.907 -24.575,-23.136c-5.672,-10.228 -8.51,-22.535 -8.51,-36.921c0,-13.264 2.497,-25.072 7.494,-35.421c4.994,-10.348 12.364,-18.4 22.115,-24.153c9.749,-5.755 21.375,-8.631 34.882,-8.631c13.585,0 24.653,3.096 33.206,9.288c8.549,6.195 14.643,14.666 18.28,25.416c3.634,10.747 5.452,22.994 5.452,36.739l0,4.196Z"
       style="fill:#2fbba5;fill-rule:nonzero;"
       id="path40" /><path
       d="M430.496,133.256l0,-20.139c0,-6.872 -0.08,-12.025 -0.24,-15.462c-3.197,-0.321 -5.714,-0.479 -7.553,-0.479c-7.832,0 -14.265,1.736 -19.298,5.212c-5.036,3.479 -8.691,8.192 -10.968,14.146c-2.278,5.954 -3.416,12.765 -3.416,20.439c0,9.909 1.797,18.28 5.393,25.113c3.597,6.831 9.911,10.248 18.941,10.248c5.194,0 10.667,-1.958 16.422,-5.874c0.16,-4.956 0.279,-9.27 0.36,-12.946c0.08,-3.675 0.158,-6.753 0.238,-9.231c0.08,-2.475 0.121,-6.153 0.121,-11.027Zm41.716,64.61l-1.2,1.438c-13.346,0 -26.691,0.241 -40.037,0.72l-1.198,-1.677l0.479,-9.35c-5.595,4.795 -10.688,8.21 -15.284,10.248c-4.594,2.038 -10.29,3.057 -17.082,3.057c-8.709,0 -16.363,-1.619 -22.953,-4.855c-6.593,-3.236 -12.028,-7.692 -16.303,-13.365c-4.276,-5.675 -7.473,-12.247 -9.591,-19.72c-2.116,-7.472 -3.177,-15.483 -3.177,-24.034c0,-11.666 1.638,-22.035 4.915,-31.106c3.277,-9.071 8.091,-16.663 14.446,-22.775c6.352,-6.114 14.084,-10.688 23.194,-13.727c9.11,-3.036 19.619,-4.554 31.527,-4.554c2.396,0 4.315,0.02 5.753,0.059c1.438,0.041 3.036,0.101 4.795,0.181l0,-10.789c0,-16.621 -0.559,-32.164 -1.678,-46.63l1.197,-1.198c11.668,-1.678 25.255,-3.875 40.757,-6.593l1.44,1.438c-0.32,13.347 -0.561,24.314 -0.719,32.906c-0.162,8.59 -0.302,17.082 -0.421,25.473c-0.119,8.391 -0.238,18.52 -0.36,30.387c-0.119,11.867 -0.178,22.873 -0.178,33.025c0,25.333 0.558,49.147 1.678,71.441Z"
       style="fill:#2fbba5;fill-rule:nonzero;"
       id="path42" /><path
       d="M282.573,165.141l0,-29.606c-10.388,1.198 -18.957,3.135 -25.71,5.812c-6.754,2.677 -10.129,7.773 -10.129,15.284c0,4.635 1.479,8.293 4.435,10.97c2.957,2.677 6.713,4.014 11.268,4.014c6.313,0 13.026,-2.157 20.136,-6.474Zm42.078,32.485l-1.321,1.678c-13.026,0 -26.011,0.241 -38.957,0.72l-1.559,-1.677l0,-9.112c-9.909,8.711 -21.177,13.067 -33.804,13.067c-5.993,0 -11.668,-1.04 -17.022,-3.117c-5.354,-2.077 -10.028,-5.113 -14.025,-9.11c-3.996,-3.996 -7.032,-8.67 -9.11,-14.024c-2.079,-5.354 -3.116,-11.029 -3.116,-17.022c0,-12.069 3.955,-21.557 11.867,-28.47c7.91,-6.912 17.203,-11.748 27.87,-14.503c10.669,-2.758 22.876,-4.897 36.621,-6.415c-0.241,-5.913 -1.798,-9.868 -4.674,-11.867c-2.877,-1.997 -7.434,-2.996 -13.665,-2.996c-11.829,0 -25.853,3.236 -42.076,9.708l-1.678,-0.957c0.318,-6.154 0.558,-11.089 0.719,-14.805c0.16,-3.715 0.318,-7.851 0.478,-12.406l1.56,-1.438c16.541,-5.755 33.284,-8.631 50.226,-8.631c18.062,0 30.966,3.794 38.718,11.386c7.752,7.594 11.627,20.18 11.627,37.761c0,3.916 -0.078,9.948 -0.238,18.099c-0.161,8.152 -0.241,14.225 -0.241,18.222c0,16.781 0.6,32.086 1.8,45.909Z"
       style="fill:#2fbba5;fill-rule:nonzero;"
       id="path44" /><path
       d="M186.198,197.626l-1.56,1.678c-13.985,0 -28.129,0.241 -42.433,0.72l-1.678,-1.677c1.117,-19.021 1.678,-39.318 1.678,-60.895c0,-9.351 -0.08,-17.263 -0.24,-23.735c-0.16,-6.471 -0.46,-13.186 -0.898,-20.139c-0.44,-6.952 -1.06,-13.344 -1.859,-19.179l1.559,-1.557c10.947,-1.679 25.093,-4.115 42.433,-7.312l1.679,1.916c-0.481,18.461 -0.719,36.882 -0.719,55.262c0,28.129 0.68,53.103 2.038,74.918Zm-2.998,-189.035c-0.479,11.027 -0.719,22.134 -0.719,33.323l-1.198,1.798c-11.828,1.28 -24.774,3.158 -38.837,5.634l-1.679,-1.558c0.158,-3.116 0.238,-7.751 0.238,-13.905c0,-6.792 -0.238,-13.507 -0.719,-20.137l1.438,-1.8c7.434,-0.638 20.778,-2.276 40.038,-4.914l1.438,1.559Z"
       style="fill:#2fbba5;fill-rule:nonzero;"
       id="path46" /><path
       d="M128.9,70.204c-3.117,9.43 -6.575,19.72 -10.369,30.868c-3.797,11.145 -8.153,24.073 -13.068,38.777c-4.914,14.705 -8.53,25.654 -10.848,32.845c-2.317,7.193 -4.875,15.423 -7.672,24.694l-1.438,1.916c-13.344,0 -26.691,0.241 -40.037,0.72l-1.679,-1.677c-3.355,-12.307 -9.668,-32.606 -18.939,-60.895c-4.715,-14.464 -11.986,-36.163 -21.815,-65.091l0.957,-1.917c14.066,-0.24 28.37,-1.159 42.914,-2.757l1.798,1.557c0.959,5.515 4.477,20.059 10.55,43.635c1.837,7.512 3.696,15.124 5.574,22.835c1.878,7.71 3.616,15.242 5.215,22.596c0.559,-2.719 1.557,-6.712 2.995,-11.986c1.438,-5.277 2.478,-9.232 3.117,-11.87c1.839,-7.03 3.637,-14.084 5.395,-21.156c1.757,-7.074 3.616,-14.725 5.574,-22.955c1.958,-8.233 3.456,-14.705 4.496,-19.42l1.678,-1.679c20.217,-0.398 31.686,-0.678 34.402,-0.838l1.2,1.798Z"
       style="fill:#2fbba5;fill-rule:nonzero;"
       id="path48" /></g><text
     xml:space="preserve"
     style="font-style:normal;font-variant:normal;font-weight:normal;font-stretch:condensed;font-size:184.09333801px;line-height:1.25;font-family:Arial;-inkscape-font-specification:'Arial, Condensed';font-variant-ligatures:normal;font-variant-caps:normal;font-variant-numeric:normal;font-feature-settings:normal;text-align:start;letter-spacing:0px;word-spacing:0px;writing-mode:lr-tb;text-anchor:start;fill:#635f5c;fill-opacity:1;stroke:none;stroke-width:4.6022954"
     x="917.27008"
     y="200.44936"
     id="text3751"
     transform="scale(1.004981,0.99504368)"><tspan
       sodipodi:role="line"
       id="tspan3749"
       x="917.27008"
       y="200.44936"
       style="font-style:normal;font-variant:normal;font-weight:normal;font-stretch:normal;font-size:184.09333801px;font-family:Oswald;-inkscape-font-specification:Oswald;font-variant-ligatures:normal;font-variant-caps:normal;font-variant-numeric:normal;font-feature-settings:normal;text-align:start;writing-mode:lr-tb;text-anchor:start;fill:#635f5c;fill-opacity:1;stroke-width:4.6022954">BPMN.AI</tspan></text>
</svg>